<?xml version="1.0" encoding="iso-8859-1"?>
<!-- Generator: Adobe Illustrator 19.0.0, SVG Export Plug-In . SVG Version: 6.00 Build 0)  -->
<svg xmlns="http://www.w3.org/2000/svg" xmlns:xlink="http://www.w3.org/1999/xlink" version="1.1" id="Layer_1" x="0px" y="0px" viewBox="0 0 511.999 511.999" style="enable-background:new 0 0 511.999 511.999;" xml:space="preserve" width="512px" height="512px">
<g>
	<g>
		<path d="M490.16,0.328c-12.043,0-21.839,9.797-21.839,21.84v49.023c-7.888-7.693-18.656-12.446-30.519-12.446    c-9.895,0-19.031,3.307-26.367,8.868c-3.575-37.696-35.4-67.286-74.015-67.286c-24.353,0-46.009,11.768-59.58,29.916v-8.076    c0-12.042-9.796-21.84-21.839-21.84s-21.84,9.797-21.84,21.84v43.401c-9.48-16.428-23.172-30.432-40.06-40.24    c-3.529-2.049-8.052-0.851-10.101,2.679c-2.049,3.529-0.851,8.052,2.679,10.101c29.287,17.011,47.481,48.593,47.481,82.42    c0,52.517-42.725,95.241-95.241,95.241c-52.516,0-95.241-42.724-95.241-95.241c0-52.516,42.724-95.24,95.241-95.24    c10.035,0,19.914,1.551,29.362,4.61c3.884,1.255,8.049-0.872,9.306-4.755c1.257-3.882-0.872-8.049-4.754-9.306    c-10.92-3.534-22.331-5.327-33.914-5.327c-40.632,0-76.187,22.143-95.241,54.992V22.168c0-12.043-9.797-21.84-21.84-21.84    C9.797,0.328,0,10.125,0,22.168v304.934c0,4.082,3.309,7.389,7.39,7.389s7.389-3.308,7.389-7.389V22.168    c0-3.894,3.167-7.061,7.061-7.061c3.893,0,7.061,3.168,7.061,7.061v474.724H14.779V352.226c0-4.082-3.309-7.389-7.389-7.389    S0,348.144,0,352.226V498.37c0,7.335,5.966,13.301,13.301,13.301h17.078c7.334,0,13.301-5.966,13.301-13.301v-52.654    c7.085,5.891,16.182,9.442,26.095,9.442c13.558,0,25.588-6.641,33.028-16.834c11.84,25.401,37.604,43.059,67.427,43.059    c27.159,0,50.953-14.643,63.93-36.441v53.43c0,7.335,5.966,13.301,13.301,13.301h17.077c7.335,0,13.301-5.966,13.301-13.301    v-45.447c18.542,33.76,54.442,56.695,95.601,56.695c40.633,0,76.139-22.353,94.88-55.406v44.157    c0,7.335,5.966,13.301,13.301,13.301h17.077c7.335,0,13.301-5.966,13.301-13.301V22.168C512,10.125,502.203,0.328,490.16,0.328z     M234.16,175.554v75.875c-7.599-6.654-17.537-10.7-28.408-10.7c-14.106,0-26.653,6.799-34.539,17.292    c-4.893-10.988-12.367-20.574-21.658-27.988C185.701,226.548,216.789,205.503,234.16,175.554z M43.68,175.555    c9.795,16.888,23.951,30.944,40.917,40.618c-16.583,4.302-30.936,14.196-40.917,27.542V175.555z M103.259,228.577    c31.066,0,56.641,23.903,59.333,54.282c-0.009,0.353-0.027,0.702-0.027,1.057c0.001,1.595,0.094,3.169,0.264,4.72    c-0.26,32.632-26.875,59.102-59.569,59.102c-32.853,0-59.58-26.728-59.58-59.58S70.406,228.577,103.259,228.577z M69.775,440.379    c-14.39,0-26.095-11.707-26.095-26.095c0-14.389,11.707-26.095,26.095-26.095c14.39,0,26.095,11.706,26.095,26.095    C95.871,428.672,84.164,440.379,69.775,440.379z M98.99,385.737c-7.426-7.598-17.777-12.328-29.215-12.328    c-9.913,0-19.011,3.549-26.095,9.441v-50.248c13.573,18.148,35.228,29.916,59.58,29.916c2.619,0,5.205-0.14,7.755-0.405    C105.684,369.121,101.575,377.101,98.99,385.737z M170.23,466.603c-32.853,0-59.581-26.728-59.581-59.58    s26.728-59.58,59.581-59.58c32.853,0,59.58,26.728,59.58,59.58S203.083,466.603,170.23,466.603z M234.161,369.104    c-12.978-21.798-36.772-36.441-63.931-36.441c-2.619,0-5.205,0.14-7.755,0.406c4.679-6.154,8.413-13.058,11.007-20.496    c7.917,8.905,19.447,14.529,32.271,14.529c10.871,0,20.808-4.046,28.409-10.7V369.104z M205.753,312.323    c-14.368,0-26.27-10.723-28.144-24.584c-0.01-1.77-0.096-3.52-0.228-5.259c0.751-15,13.189-26.972,28.372-26.972    c15.665,0,28.409,12.744,28.409,28.409C234.161,299.579,221.417,312.323,205.753,312.323z M248.939,496.892V22.168    c0-3.894,3.167-7.061,7.061-7.061c3.893,0,7.06,3.168,7.06,7.061v474.724H248.939z M437.802,73.524    c15.971,0,28.967,12.994,28.967,28.966c0,15.971-12.995,28.967-28.967,28.967c-15.971,0-28.966-12.994-28.966-28.967    C408.837,86.518,421.831,73.524,437.802,73.524z M317.209,214.85c0-41.234,33.546-74.78,74.78-74.78    c41.234,0,74.78,33.546,74.78,74.78c0,41.233-33.546,74.779-74.78,74.779C350.755,289.628,317.209,256.083,317.209,214.85z     M350.329,294.108c-3.526,0.764-6.99,1.7-10.382,2.797c0.768-2.631,1.259-5.376,1.438-8.205    C344.252,290.669,347.237,292.476,350.329,294.108z M277.841,119.133c12.475,16.68,31.786,27.947,53.738,29.663    c-17.902,16.386-29.147,39.931-29.147,66.055c0,11.972,2.367,23.4,6.649,33.849c-1.831-0.272-3.702-0.417-5.608-0.417    c-9.869,0-18.87,3.784-25.633,9.975V119.133z M303.472,263.061c12.804,0,23.22,10.417,23.22,23.219s-10.417,23.219-23.22,23.219    s-23.219-10.417-23.219-23.219C280.253,273.477,290.668,263.061,303.472,263.061z M400.763,125.722    c-2.887-0.282-5.814-0.43-8.774-0.43c-0.052,0-0.104,0.002-0.156,0.002c1.916-2.057,3.72-4.219,5.395-6.483    C398.205,121.229,399.39,123.54,400.763,125.722z M337.419,15.107c32.854,0,59.581,26.728,59.581,59.58    s-26.728,59.58-59.581,59.58c-32.853,0-59.58-26.728-59.58-59.58C277.84,41.835,304.568,15.107,337.419,15.107z M277.84,314.303    c5.104,4.673,11.487,7.966,18.554,9.303c-7.291,7.294-13.553,15.615-18.554,24.721V314.303z M373.441,494.84    c-51.95,0-94.214-42.265-94.214-94.214s42.265-94.214,94.214-94.214s94.214,42.265,94.214,94.214    C467.655,452.576,425.39,494.84,373.441,494.84z M468.321,347.038c-11.572-20.408-29.537-36.733-51.154-46.239    c21.492-6.306,39.656-20.47,51.154-39.158V347.038z M468.321,168.058c-5.412-8.797-12.303-16.59-20.322-23.034    c7.787-1.867,14.769-5.818,20.322-11.234V168.058z M483.099,496.892V22.168c0-3.894,3.168-7.061,7.06-7.061    c3.894,0,7.061,3.168,7.061,7.061v474.724H483.099z" fill="#D80027"/>
	</g>
</g>
<g>
	<g>
		<path d="M138.919,52.547c-37.486-0.001-67.982,30.496-67.982,67.982s30.497,67.982,67.982,67.982    c37.486,0,67.982-30.497,67.982-67.982C206.901,83.044,176.404,52.547,138.919,52.547z M138.919,173.732    c-29.337,0-53.204-23.867-53.204-53.204s23.866-53.204,53.204-53.204c29.337,0,53.204,23.867,53.204,53.204    S168.257,173.732,138.919,173.732z" fill="#D80027"/>
	</g>
</g>
<g>
	<g>
		<path d="M373.441,333.25c-13.142,0-25.88,3.787-36.835,10.952c-3.415,2.233-4.373,6.813-2.139,10.229    c2.233,3.416,6.813,4.372,10.229,2.139c8.544-5.587,18.484-8.541,28.745-8.541c29.002,0,52.598,23.595,52.598,52.597    c0,29.002-23.596,52.597-52.598,52.597c-29.002,0-52.597-23.595-52.597-52.597c0-10.313,2.982-20.297,8.624-28.87    c2.243-3.41,1.297-7.992-2.111-10.235c-3.409-2.244-7.991-1.299-10.236,2.111c-7.233,10.993-11.056,23.785-11.056,36.993    c0,37.15,30.225,67.376,67.375,67.376c37.151,0,67.376-30.225,67.376-67.376S410.592,333.25,373.441,333.25z" fill="#D80027"/>
	</g>
</g>
<g>
	<g>
		<path d="M103.259,241.229c-25.876,0-46.928,21.052-46.928,46.928s21.052,46.928,46.928,46.928    c25.877,0,46.929-21.052,46.929-46.928C150.189,262.281,129.136,241.229,103.259,241.229z M103.259,320.307    c-17.727,0-32.15-14.422-32.15-32.15s14.422-32.15,32.15-32.15c17.728,0,32.15,14.422,32.15,32.15    C135.41,305.885,120.987,320.307,103.259,320.307z" fill="#D80027"/>
	</g>
</g>
<g>
	<g>
		<path d="M170.23,360.094c-25.877,0-46.929,21.052-46.929,46.928c0,25.878,21.052,46.93,46.929,46.93    c25.876,0,46.928-21.052,46.928-46.93C217.158,381.147,196.106,360.094,170.23,360.094z M170.23,439.173    c-17.728,0-32.15-14.422-32.15-32.151c0-17.727,14.422-32.149,32.15-32.149s32.15,14.421,32.15,32.149    C202.38,424.75,187.957,439.173,170.23,439.173z" fill="#D80027"/>
	</g>
</g>
<g>
	<g>
		<path d="M337.419,27.759c-25.876,0-46.928,21.052-46.928,46.928c0,25.878,21.052,46.93,46.928,46.93    c25.877,0,46.93-21.052,46.93-46.93C384.349,48.811,363.297,27.759,337.419,27.759z M337.419,106.838    c-17.727,0-32.15-14.422-32.15-32.151c0.001-17.728,14.422-32.15,32.15-32.15c17.728,0,32.151,14.421,32.151,32.15    S355.148,106.838,337.419,106.838z" fill="#D80027"/>
	</g>
</g>
<g>
	<g>
		<path d="M391.989,158.948c-30.823,0-55.901,25.078-55.901,55.902c0,30.823,25.078,55.901,55.901,55.901    c30.824,0,55.902-25.078,55.902-55.901C447.891,184.026,422.814,158.948,391.989,158.948z M391.989,255.973    c-22.675,0-41.122-18.447-41.122-41.122s18.447-41.123,41.122-41.123s41.123,18.448,41.123,41.123    C433.113,237.525,414.664,255.973,391.989,255.973z" fill="#D80027"/>
	</g>
</g>
<g>
</g>
<g>
</g>
<g>
</g>
<g>
</g>
<g>
</g>
<g>
</g>
<g>
</g>
<g>
</g>
<g>
</g>
<g>
</g>
<g>
</g>
<g>
</g>
<g>
</g>
<g>
</g>
<g>
</g>
</svg>
