<?xml version="1.0" encoding="iso-8859-1"?>
<!-- Generator: Adobe Illustrator 16.0.0, SVG Export Plug-In . SVG Version: 6.00 Build 0)  -->
<!DOCTYPE svg PUBLIC "-//W3C//DTD SVG 1.1//EN" "http://www.w3.org/Graphics/SVG/1.1/DTD/svg11.dtd">
<svg xmlns="http://www.w3.org/2000/svg" xmlns:xlink="http://www.w3.org/1999/xlink" version="1.1" id="Capa_1" x="0px" y="0px" width="512px" height="512px" viewBox="0 0 611.907 611.907" style="enable-background:new 0 0 611.907 611.907;" xml:space="preserve">
<g>
	<path d="M14.743,451.737l84.6,34.5l-90.6-12c-6.9-0.8-9.4-4.399-8.6-8.6l3.4-12.101c0-2.5,1.7-3.399,3.4-4.399   C9.543,448.237,12.144,449.138,14.743,451.737z M114.743,452.638l-35.4-84.601c-2.5-4.399-5.2-6.899-7.8-6.899   c-0.8,0-1.7,0-2.5,0.8l-10.3,7c-4.4,2.5-3.4,6.9,0.8,11.3L114.743,452.638z M601.243,491.338l-58.6,4.399   c-6.9,0.8-11.3-4.399-12.101-10.3l-1.699-17.2l-1.7-19.899l-310.5,24l0.8,10.3c0.8,11.3-5.2,13-13,13h-51.7h-16.5h-15.5   c-5.2,0-8.6-4.4-8.6-9.4c0-5.2,3.4-8.6,8.6-8.6h13.8l-8.6-111.2c-0.8-13.8,0-24.9,6.1-40.6l61.3-157.901   c6.9-18.2,28.5-34.5,48.3-36.2l207.1-15.5c19.9-1.7,44,11.3,54.4,30.2l84.6,145.7c7.8,13.8,11.3,24.9,12.101,38.8l10.3,131   l1.7,17.2C612.543,485.338,607.344,490.537,601.243,491.338z M189.843,316.338l340.7-26.801l-57.8-100.9   c-10.3-17.2-19-22.4-35.399-22.4c-2.5,0-5.2,0-6.9,0.8l-161.2,12.1c-21.6,0.8-29.3,6.9-37.9,28.5L189.843,316.338z    M242.443,388.737c-1.7-19.899-19.9-35.399-39.7-33.7c-20.7,0.801-35.4,19-32.8,39.7c1.7,19.9,19,35.4,38.8,33.7   C228.644,426.737,244.144,408.638,242.443,388.737z M561.644,363.638c-1.7-19.9-19.9-35.4-39.7-33.7c-19.9,1.7-34.5,19.9-32.8,39.7   s19,35.399,38.8,33.7C547.844,401.737,563.344,383.537,561.644,363.638z M25.043,379.338c-1.7,0-3.4,0.8-5.2,2.5l-10.3,10.3   c-4.4,4.399-2.5,9.399,4.4,14.7l89.6,69.1l-69.1-89.6C31.144,381.838,28.443,379.338,25.043,379.338z" fill="#AD0101"/>
</g>
<g>
</g>
<g>
</g>
<g>
</g>
<g>
</g>
<g>
</g>
<g>
</g>
<g>
</g>
<g>
</g>
<g>
</g>
<g>
</g>
<g>
</g>
<g>
</g>
<g>
</g>
<g>
</g>
<g>
</g>
</svg>
