<svg id="Réteg_1" data-name="Réteg 1" xmlns="http://www.w3.org/2000/svg" viewBox="0 0 451.55 182.48"><defs><style>.cls-1{fill:#ed1c24;}.cls-2{fill:#fff;}.cls-3{fill:#7cc242;}</style></defs><title>mgLogoSeperatedText</title><path d="M399.74,193.43c0.76,37.09-36.18,70.83-85.62,70.87-48.75,0-86.72-32.13-86-72.95,0.69-38.68,39.69-69.88,87.55-69.35C362.13,122.51,400.08,154.61,399.74,193.43ZM321.63,200c0.85,12.31,3.62,23.32,5.6,34.68,14-3.14,24-9.6,31.65-19.5Zm-15.89-.07-36.65,14.84c7.3,9.88,17.11,16.35,30.6,19.65Zm19.43-12.22,41,5.81c0.21-11.28-4.28-20.73-12.06-28.1ZM262,193.48l39.58-5.65-28-21.82A38.09,38.09,0,0,0,262,193.48Zm68.86-40.93c-8.9-3.74-28-3.48-35.12.72L313.1,180.4Zm-16.65,56.87-0.92.06-6.76,26.37H319.7Zm20.27-13.55-0.21.83,28,13.4,3.45-10.27Zm-41.88,1.72-0.34-.73-29.89,2.59,3.15,9.83Zm45.53-43-13,21.49,0.7,0.4L348,160Zm-57.28,5.12,19.35,16.68L288.7,155.3Zm48,99.69-5-6.83C322.77,258.54,323.7,259.63,328.88,259.41Zm31.46-11.06-7.8-4.12C354.48,250.18,356.81,251.13,360.34,248.35Zm9.92-16.54c4.52,5.05,5.75,5.16,8.64,2Zm-24.42,24,0.16-.92c-1.31-.56-2.91-0.91-3.86-1.75s-1.41-2.26-2.07-3.41l-1.84.53c0.77,1.68,1.08,3.71,2.46,4.9C341.65,256,344.07,255.65,345.84,255.83Zm27.49-16.67-9.33-3.1C368.23,241.8,370.48,242.25,373.33,239.16Zm23-37.46-9.37,1c1.17,1.33,3,2.43,4.57,2.22S394.21,203.19,396.28,201.7Zm0.61-7.64-9.38,2.64-0.11,1.06c2,0.13,4.26.74,6,.22C394.74,197.58,395.47,195.75,396.89,194.06Zm-1.32-6.89-8.46,3.53C393.45,192.21,395.22,191.38,395.56,187.17Zm-36.82,53.1c2.11,5.27,4.33,6.09,8.36,4ZM308,125.86l3.19,6.57C313.23,126.81,312.54,125.69,308,125.86Zm-65.79,82.35-0.11-1.4c-2,.39-4.28.48-6,1.29-0.79.36-.6,2.16-0.89,3.45ZM388.73,222l-9.55-1-0.62.87c1.73,0.83,3.41,2.22,5.19,2.32C385.27,224.32,386.9,222.9,388.73,222ZM279.47,247.13l-1.07-.74c-1,1.45-2.55,2.82-2.84,4.36-0.18,1,1.5,2.19,2.68,3.74Zm-47.59-50.37,1.12,0.62,6.9-2,0.15-1.11c-1.7-.09-3.55-0.54-5.06-0.14C233.75,194.5,232.9,195.86,231.88,196.76Zm163.24-16-1.19-.16-7.07,3.12,0,1.06c1.92-.12,4.11.18,5.66-0.51C393.81,183.76,394.3,182,395.12,180.79ZM385,209.28l-0.4,1.11c2.13,0.38,4.34,1.22,6.35,1,1.25-.16,2.2-2,3.32-3.06Zm-8.73-49.55,0.63,1.2c1.78-.93,4-1.6,5.18-2.9,0.66-.7-0.3-2.46-0.5-3.58Zm-142.87,24,8.3-1.44C236.34,179.36,234,179.91,233.36,183.72Zm151.39,44.69-9.3-1.92-0.83.78c1.51,1,2.89,2.58,4.58,2.87C380.65,230.39,382.48,229.19,384.75,228.42Zm-2.67-13.09-0.23,1.24c2.14,0.52,4.29,1.43,6.42,1.39,1.15,0,2.26-1.66,3.47-2.63h-9.66ZM251.81,236.25l4.62-6.64C249.31,232.28,248.82,233.27,251.81,236.25Zm9.24-.78-1-.79c-1.44,1.16-3.37,2.14-4.16,3.55-0.49.89,0.73,2.43,1.24,3.82ZM267,238.8c-6.13,3.33-6.58,5.26-2.86,7.08ZM353,252.21l-6.87-4.93C346,252.66,348.49,254.14,353,252.21Zm-66.58-2.94-1.45-.21c-0.6,1.77-1.58,3.54-1.63,5.32,0,0.75,1.92,1.54,3.07,2.39v-7.5Zm7.78,9.77,0.78-.77a14.8,14.8,0,0,1-1.24-3.46,10.65,10.65,0,0,1,.65-3.2l-1.9-.38c-0.48,1.62-1.47,3.28-1.27,4.84C291.39,257.14,293.19,258.06,294.24,259Zm24.31-126.58c3.38-4.67,2.49-6.67-2-6.82Zm-10.14,120c-2,6.74-1,8.18,3.38,7.79Zm12.31,8.65-3.89-7.32c-1,1.58-1.61,3.51-.84,4.94C316.57,259.86,318.88,260.3,320.72,261.16ZM371,143.07l-4.52,6.7,0.74,0.92c1.41-.87,3.39-1.51,4.05-2.66S371.18,145.25,371,143.07ZM251.34,225.78l-0.4-1.28c-1.73.76-3.91,1.23-5.05,2.39-0.79.8-.15,2.57-0.15,4.29Zm-8.77-49.33,0.41-1.39a30.36,30.36,0,0,0-6-1.12c-0.75,0-1.5,1.63-2.23,2.51h7.85ZM357,134.59l-2.41,7.23,1.11,0.68c1.21-1.3,3-2.47,3.46-3.93C359.44,137.63,357.94,136.27,357,134.59Zm-31.85-8.4c0.14,1.6.24,3.11,0.44,4.6a2.76,2.76,0,0,0,.68,1.55,2.11,2.11,0,0,0,1.52-.33C330.07,129.81,328.54,126.84,325.1,126.19Zm-84.49,37.2,8.12,1,0-1.18C246.11,162.26,243.43,158.78,240.62,163.39Zm-6.76,41.14,7.74-3.31C234.55,200.28,233.25,201,233.85,204.53Zm151.73-44-6.31,5.94C386.5,165.28,387.36,164.28,385.58,160.52ZM331.24,251c-0.08,6.42,1.8,8,5.44,6.46Zm58.61-84.51-6.81,5,0.3,0.9c1.94-.49,4.36-0.58,5.68-1.62C390,170,389.63,168,389.86,166.51ZM268.17,144.92c-3.16-6-3.34-6.08-6.53-3.33Zm-23.05,68.64c-7-.16-8.4,1.09-6.46,4.51Zm2.63,6.54-0.51-1.25c-1.86.67-4,1-5.46,2.11-0.78.58-.32,2.31-0.43,3.7Zm116.31-81.17-3.11,6.49,0.8,0.7c1.42-1.2,3.28-2.24,4.09-3.67C366.25,141.72,364.79,140.26,364.06,138.93Zm-89.88,2,1.23-.26c-1-1.42-1.62-3.09-3-4.17-0.67-.53-2.59,0-3.94.06l2-.74Zm117.93,32.56-6.87,4.32C391.6,178.8,393.62,177.31,392.11,173.49Zm-42.86-41.22-1.16,6.61C353.08,134.87,353.09,134.07,349.25,132.27Zm-112.5,37.44,8.39,0.63,0.44-1c-1.74-.68-3.44-1.69-5.26-1.89C239.4,167.38,238.23,168.74,236.75,169.71Zm58.54-36,1.48-.28c-0.43-1.65-.56-3.42-1.45-4.89-0.37-.61-2.35-0.56-4.18-0.93ZM271,250.32l2-7.91C267.36,246.85,267.23,247.93,271,250.32Zm70.34-121.71L341,135.92l1.17,0.42c0.86-1.53,2.2-3,2.38-4.61C344.6,130.87,342.7,129.86,341.38,128.61Zm-41.8-1.91,4.33,6.48C304.63,127,304,126.23,299.58,126.69Zm2,126.45-1.52-.28c-0.24,1.78-.89,3.62-0.55,5.33,0.15,0.78,2.25,1.3,3.38,1.89ZM262.09,149.3c-1.87-5.19-3.73-5.82-6.08-3.16ZM232.21,190.5l8.21-1.85-0.4-1C237.28,187.86,233.46,185.46,232.21,190.5ZM257,153.73l0.7-.84c-1.58-1.1-3-2.47-4.81-3.15-0.71-.27-2.27,1-3.66,1.68Z" transform="translate(-62 -81.82)"/><path class="cls-1" d="M513.55,82.38c-1,7.28-1.64,14.61-3.14,21.81-2.26,10.89-6.67,21.34-16.34,29.18a128,128,0,0,1-24.8,16c-16.42,7.9-33.51,14.87-50.55,21.86-4.14,1.7-5.4,3.3-5,7.16,1.74,19.08-1.37,37.34-15.29,53.4-1.17,1.35-2.47,2.62-3.76,3.9a14.34,14.34,0,0,1-4.09,3.08c3.15-4.88,6.7-9.62,9.4-14.67,10.75-20.12,9.06-40.13-1.66-59.86-1.4-2.57-1.5-3.77,1.8-5.42,26.52-13.25,52.15-27.6,75.83-44.2,13.25-9.29,25.68-19.25,35.24-31.39a13.29,13.29,0,0,1,1-1Z" transform="translate(-62 -81.82)"/><path class="cls-1" d="M113.15,81.82c18.05,22.17,42.48,37.85,67.8,52.63,15,8.78,30.7,16.82,46.08,25.2,0.62,0.34,1.2.74,1.9,1.18-14.76,26.13-14.52,51.52,4.19,76.5-1.44-1.25-3-2.42-4.29-3.78-12.38-13.07-16.92-28.25-17.27-44.51-0.1-4.48.47-9,.31-13.45a4.53,4.53,0,0,0-2.63-3.25,580.49,580.49,0,0,1-57.78-25.27c-24.37-12.2-36.07-30.22-38.25-53.1C112.84,90.17,113.15,86.33,113.15,81.82Z" transform="translate(-62 -81.82)"/><path d="M216.49,224.3a53.74,53.74,0,0,1-14-28c-0.62-3.83-2-5.74-7.19-6.61-18.94-3.12-36.33-9.25-50.53-20.54a58.59,58.59,0,0,1-20.73-31c8.29,4.82,15.95,9.51,23.88,13.84,17.26,9.43,35.93,16.55,55.36,22.26,3.47,1,4.15,2.45,3.81,5C205,195,208.4,210,216.49,224.3Z" transform="translate(-62 -81.82)"/><path d="M409.41,223.79a73.13,73.13,0,0,0,9.74-38.41c0-1.41-.06-2.82-0.21-4.23-0.64-5.83-.61-5.73,5.85-7.69,26.34-8,50.85-18.71,72.81-33.27,0.93-.61,1.93-1.15,3.77-2.23a54.65,54.65,0,0,1-12.3,23.28c-12.67,14.13-30.2,22-50.14,26.75a15.29,15.29,0,0,1-3.58.77c-9.83-.12-12.28,4.77-13.4,11.86C420.61,209.2,415.63,216.82,409.41,223.79Z" transform="translate(-62 -81.82)"/><path class="cls-1" d="M474.08,184.4c-9.95,12-23.78,18.7-41,20.53-3.23.34-5.05,1.17-6.25,3.54a25.94,25.94,0,0,1-2.83,4,25.09,25.09,0,0,1-1.93,2c2.14-6.52,4.16-12.79,6.32-19a2.76,2.76,0,0,1,2-1.12C445.75,193.41,459.75,188.62,474.08,184.4Z" transform="translate(-62 -81.82)"/><path class="cls-1" d="M202.5,213.29c-0.76-.86-1.85-1.63-2.23-2.59-1.81-4.56-5.95-5.62-11.23-6.31a59.41,59.41,0,0,1-35.31-17c-0.69-.69-1.34-1.41-2-2.15a1,1,0,0,1-.27-0.54l34.61,8.6a5.42,5.42,0,0,0,1.81.3c7.54-.89,10.52,2.2,11.39,8.08,0.57,3.85,2.42,7.56,3.7,11.34Z" transform="translate(-62 -81.82)"/><path class="cls-2" d="M321.63,200l37.25,15.18c-7.6,9.9-17.63,16.36-31.65,19.5C325.25,223.33,322.48,212.31,321.63,200Z" transform="translate(-62 -81.82)"/><path class="cls-2" d="M305.74,199.94l-6,34.48c-13.49-3.29-23.3-9.77-30.6-19.65Z" transform="translate(-62 -81.82)"/><path class="cls-2" d="M325.17,187.72l28.92-22.3c7.77,7.38,12.26,16.83,12.06,28.1Z" transform="translate(-62 -81.82)"/><path class="cls-2" d="M262,193.48A38.09,38.09,0,0,1,273.58,166l28,21.82Z" transform="translate(-62 -81.82)"/><path class="cls-2" d="M330.9,152.55L313.1,180.4l-17.32-27.12C302.91,149.07,322,148.81,330.9,152.55Z" transform="translate(-62 -81.82)"/><path class="cls-2" d="M314.25,209.42l5.45,26.43H306.57l6.76-26.37Z" transform="translate(-62 -81.82)"/><path class="cls-2" d="M334.52,195.87l31.25,4-3.45,10.27-28-13.4Z" transform="translate(-62 -81.82)"/><path class="cls-2" d="M292.64,197.6l-27.08,11.7-3.15-9.83,29.89-2.59Z" transform="translate(-62 -81.82)"/><path class="cls-2" d="M338.16,154.6L348,160l-22.11,16.47-0.7-.4Z" transform="translate(-62 -81.82)"/><path class="cls-2" d="M280.88,159.72l7.82-4.42,11.53,21.1Z" transform="translate(-62 -81.82)"/><path class="cls-2" d="M328.88,259.41c-5.17.22-6.1-.87-5-6.83Z" transform="translate(-62 -81.82)"/><path class="cls-2" d="M360.34,248.35c-3.53,2.79-5.86,1.83-7.8-4.12Z" transform="translate(-62 -81.82)"/><path class="cls-2" d="M370.26,231.81l8.64,2C376,237,374.78,236.86,370.26,231.81Z" transform="translate(-62 -81.82)"/><path class="cls-2" d="M345.84,255.83c-1.77-.17-4.19.17-5.15-0.65-1.38-1.19-1.69-3.23-2.46-4.9l1.84-.53c0.66,1.16,1.06,2.52,2.07,3.41s2.55,1.19,3.86,1.75Z" transform="translate(-62 -81.82)"/><path class="cls-2" d="M373.33,239.16c-2.85,3.1-5.1,2.64-9.33-3.1Z" transform="translate(-62 -81.82)"/><path class="cls-2" d="M396.28,201.7c-2.07,1.49-3.3,3.06-4.79,3.26s-3.41-.9-4.57-2.22Z" transform="translate(-62 -81.82)"/><path class="cls-2" d="M396.89,194.06c-1.42,1.7-2.14,3.52-3.49,3.92-1.74.52-4-.1-6-0.22l0.11-1.06Z" transform="translate(-62 -81.82)"/><path class="cls-2" d="M395.56,187.17c-0.35,4.21-2.12,5-8.46,3.53Z" transform="translate(-62 -81.82)"/><path class="cls-2" d="M358.75,240.27l8.36,4C363.08,246.36,360.85,245.54,358.75,240.27Z" transform="translate(-62 -81.82)"/><path class="cls-2" d="M308,125.86c4.56-.18,5.25.94,3.19,6.57Z" transform="translate(-62 -81.82)"/><path class="cls-2" d="M242.19,208.21l-7,3.35c0.29-1.29.1-3.09,0.89-3.45,1.76-.81,4-0.91,6-1.29Z" transform="translate(-62 -81.82)"/><path class="cls-2" d="M388.73,222c-1.83.88-3.46,2.3-5,2.22-1.78-.09-3.46-1.49-5.19-2.32l0.62-.87Z" transform="translate(-62 -81.82)"/><path class="cls-2" d="M279.47,247.13l-1.23,7.35c-1.18-1.55-2.86-2.76-2.68-3.74,0.29-1.54,1.83-2.92,2.84-4.36Z" transform="translate(-62 -81.82)"/><path class="cls-2" d="M231.88,196.76c1-.9,1.87-2.26,3.11-2.59,1.51-.4,3.36.06,5.06,0.14l-0.15,1.11-6.9,2Z" transform="translate(-62 -81.82)"/><path class="cls-2" d="M395.12,180.79c-0.82,1.22-1.3,3-2.56,3.52-1.55.69-3.75,0.38-5.66,0.51l0-1.06,7.07-3.12Z" transform="translate(-62 -81.82)"/><path class="cls-2" d="M385,209.28l9.26-1c-1.12,1.1-2.07,2.9-3.32,3.06-2,.25-4.22-0.59-6.35-1Z" transform="translate(-62 -81.82)"/><path class="cls-2" d="M376.23,159.73l5.31-5.28c0.2,1.13,1.16,2.88.5,3.58-1.22,1.29-3.4,2-5.18,2.9Z" transform="translate(-62 -81.82)"/><path class="cls-2" d="M233.36,183.72c0.63-3.81,3-4.36,8.3-1.44Z" transform="translate(-62 -81.82)"/><path class="cls-2" d="M384.75,228.42c-2.27.77-4.09,2-5.56,1.73-1.69-.29-3.07-1.86-4.58-2.87l0.83-.78Z" transform="translate(-62 -81.82)"/><path class="cls-2" d="M382.08,215.32h9.66c-1.21,1-2.32,2.61-3.47,2.63-2.13,0-4.28-.88-6.42-1.39Z" transform="translate(-62 -81.82)"/><path class="cls-2" d="M251.81,236.25c-3-3-2.5-4,4.62-6.64Z" transform="translate(-62 -81.82)"/><path class="cls-2" d="M261.05,235.47l-3.91,6.59c-0.51-1.39-1.73-2.93-1.24-3.82,0.78-1.41,2.71-2.39,4.16-3.55Z" transform="translate(-62 -81.82)"/><path class="cls-2" d="M267,238.8l-2.86,7.08C260.39,244.05,260.84,242.12,267,238.8Z" transform="translate(-62 -81.82)"/><path class="cls-2" d="M353,252.21c-4.56,1.93-7,.45-6.87-4.93Z" transform="translate(-62 -81.82)"/><path class="cls-2" d="M286.46,249.28v7.5c-1.15-.85-3.09-1.64-3.07-2.39,0-1.78,1-3.55,1.63-5.32Z" transform="translate(-62 -81.82)"/><path class="cls-2" d="M294.24,259c-1.05-1-2.85-1.91-3-3-0.2-1.56.79-3.22,1.27-4.84l1.9,0.38a10.65,10.65,0,0,0-.65,3.2,14.8,14.8,0,0,0,1.24,3.46Z" transform="translate(-62 -81.82)"/><path class="cls-2" d="M318.55,132.47l-2-6.82C321,125.8,321.93,127.8,318.55,132.47Z" transform="translate(-62 -81.82)"/><path class="cls-2" d="M308.42,252.52l3.38,7.79C307.37,260.69,306.43,259.25,308.42,252.52Z" transform="translate(-62 -81.82)"/><path class="cls-2" d="M320.72,261.16c-1.84-.87-4.15-1.31-4.73-2.38-0.77-1.43-.19-3.36.84-4.94Z" transform="translate(-62 -81.82)"/><path class="cls-2" d="M371,143.07c0.19,2.18.91,3.83,0.27,5s-2.65,1.8-4.05,2.66l-0.74-.92Z" transform="translate(-62 -81.82)"/><path class="cls-2" d="M251.34,225.78l-5.6,5.41c0-1.73-.64-3.49.15-4.29,1.14-1.16,3.32-1.63,5.05-2.39Z" transform="translate(-62 -81.82)"/><path class="cls-2" d="M242.57,176.44h-7.85c0.74-.87,1.48-2.51,2.23-2.51a30.36,30.36,0,0,1,6,1.12Z" transform="translate(-62 -81.82)"/><path class="cls-2" d="M357,134.59c1,1.68,2.49,3,2.17,4-0.5,1.46-2.24,2.64-3.46,3.93l-1.11-.68Z" transform="translate(-62 -81.82)"/><path class="cls-2" d="M325.1,126.19c3.43,0.65,5,3.62,2.65,5.82a2.11,2.11,0,0,1-1.52.33,2.76,2.76,0,0,1-.68-1.55C325.34,129.3,325.25,127.79,325.1,126.19Z" transform="translate(-62 -81.82)"/><path class="cls-2" d="M240.62,163.39c2.81-4.61,5.49-1.13,8.17-.23l0,1.18Z" transform="translate(-62 -81.82)"/><path class="cls-2" d="M233.85,204.53c-0.61-3.54.69-4.25,7.74-3.31Z" transform="translate(-62 -81.82)"/><path class="cls-2" d="M385.58,160.52c1.78,3.76.92,4.75-6.31,5.94Z" transform="translate(-62 -81.82)"/><path class="cls-2" d="M331.24,251l5.44,6.46C333,259,331.16,257.44,331.24,251Z" transform="translate(-62 -81.82)"/><path class="cls-2" d="M389.86,166.51c-0.23,1.49.17,3.49-.83,4.28-1.32,1-3.73,1.12-5.68,1.62l-0.3-.9Z" transform="translate(-62 -81.82)"/><path class="cls-2" d="M268.17,144.92l-6.53-3.33C264.83,138.85,265,138.9,268.17,144.92Z" transform="translate(-62 -81.82)"/><path class="cls-2" d="M245.12,213.57l-6.46,4.51C236.73,214.66,238.11,213.41,245.12,213.57Z" transform="translate(-62 -81.82)"/><path class="cls-2" d="M247.75,220.1l-6.4,4.57c0.11-1.39-.36-3.12.43-3.7,1.43-1.06,3.6-1.45,5.46-2.11Z" transform="translate(-62 -81.82)"/><path class="cls-2" d="M364.06,138.93c0.72,1.33,2.18,2.78,1.77,3.52-0.81,1.44-2.66,2.47-4.09,3.67l-0.8-.7Z" transform="translate(-62 -81.82)"/><path class="cls-2" d="M274.18,140.93l-3.65-5.1-2,.74c1.35-.05,3.27-0.59,3.94-0.06,1.35,1.08,2,2.74,3,4.17Z" transform="translate(-62 -81.82)"/><path class="cls-2" d="M392.11,173.49c1.51,3.82-.51,5.31-6.87,4.32Z" transform="translate(-62 -81.82)"/><path class="cls-2" d="M349.25,132.27c3.84,1.8,3.82,2.6-1.16,6.61Z" transform="translate(-62 -81.82)"/><path class="cls-2" d="M236.75,169.71c1.48-1,2.65-2.33,3.58-2.22,1.82,0.2,3.51,1.21,5.26,1.89l-0.44,1Z" transform="translate(-62 -81.82)"/><path class="cls-2" d="M295.29,133.72l-4.15-6.09c1.84,0.37,3.81.31,4.18,0.93,0.89,1.46,1,3.24,1.45,4.89Z" transform="translate(-62 -81.82)"/><path class="cls-2" d="M271,250.32c-3.81-2.38-3.68-3.47,2-7.91Z" transform="translate(-62 -81.82)"/><path class="cls-2" d="M341.38,128.61c1.32,1.25,3.21,2.26,3.12,3.12-0.17,1.58-1.52,3.08-2.38,4.61l-1.17-.42Z" transform="translate(-62 -81.82)"/><path class="cls-2" d="M299.58,126.69c4.37-.47,5,0.34,4.33,6.48Z" transform="translate(-62 -81.82)"/><path class="cls-2" d="M301.55,253.14l1.31,6.94c-1.13-.59-3.22-1.11-3.38-1.89-0.34-1.7.31-3.54,0.55-5.33Z" transform="translate(-62 -81.82)"/><path class="cls-2" d="M262.09,149.3L256,146.15C258.36,143.49,260.22,144.11,262.09,149.3Z" transform="translate(-62 -81.82)"/><path class="cls-2" d="M232.21,190.5c1.25-5,5.07-2.64,7.81-2.83l0.4,1Z" transform="translate(-62 -81.82)"/><path class="cls-2" d="M257,153.73l-7.77-2.31c1.39-.68,3-1.95,3.66-1.68,1.81,0.68,3.23,2.06,4.81,3.15Z" transform="translate(-62 -81.82)"/><text x="-62" y="-81.82"/><path class="cls-3" d="M171,397" transform="translate(-62 -81.82)"/></svg>