<?xml version="1.0" encoding="iso-8859-1"?>
<!-- Generator: Adobe Illustrator 19.0.0, SVG Export Plug-In . SVG Version: 6.00 Build 0)  -->
<svg xmlns="http://www.w3.org/2000/svg" xmlns:xlink="http://www.w3.org/1999/xlink" version="1.1" id="Layer_1" x="0px" y="0px" viewBox="0 0 295.239 295.239" style="enable-background:new 0 0 295.239 295.239;" xml:space="preserve" width="512px" height="512px">
<g>
	<g>
		<g>
			<path d="M223.811,107.895V100c0-9.933-5.1-18.686-12.81-23.81c7.714-5.124,12.81-13.876,12.81-23.81V28.57     c0-15.756-12.815-28.57-28.572-28.57H28.571C12.815,0,0.001,12.814,0.001,28.571v23.81c0,9.933,5.1,18.686,12.81,23.81     C5.1,81.314,0.001,90.067,0.001,100v23.81c0,9.933,5.1,18.686,12.81,23.81c-7.71,5.123-12.81,13.875-12.81,23.809v23.81     c0,15.757,12.814,28.571,28.571,28.571h79.324c10.614,41.01,47.824,71.429,92.105,71.429c52.514,0,95.238-42.724,95.238-95.238     C295.239,155.719,264.82,118.51,223.811,107.895z M267.692,147.619c10.848,13.99,17.457,31.381,17.914,50.305l-10.553-10.557     c-2.562-15.262-9.648-28.986-19.871-39.748H267.692z M259.125,138.096h-14.876v-0.001c-12.01-8.61-26.59-13.805-42.371-14.19     l8.871-8.871C229.401,117.382,246.182,125.724,259.125,138.096z M213.61,95.238h-48.076l17.143-14.286h12.562     C204.087,80.952,211.482,87.048,213.61,95.238z M110.657,71.429H68.391L51.248,57.143h42.266L110.657,71.429z M108.391,57.143     h42.267L167.8,71.429h-42.267L108.391,57.143z M125.534,80.952H167.8l-17.143,14.286h-42.267L125.534,80.952z M195.238,71.429     h-12.562l-17.143-14.286h48.076C211.48,65.333,204.086,71.429,195.238,71.429z M167.8,9.524L150.657,23.81h-42.267l17.143-14.286     H167.8z M110.657,9.524L93.514,23.81H51.248L68.391,9.524H110.657z M28.571,9.524h24.943L36.371,23.81H10.201     C12.329,15.619,19.725,9.524,28.571,9.524z M9.524,33.333H171.43V23.81h-5.895l17.143-14.286h12.562     c8.847,0,16.242,6.095,18.371,14.286h-13.61v9.524h14.286V47.62H9.524V33.333z M10.201,57.143h26.171l17.143,14.286H28.571     C19.725,71.429,12.329,65.333,10.201,57.143z M28.571,80.952c0,0,24.943,0,24.943,0L36.371,95.238H10.201     C12.329,87.048,19.725,80.952,28.571,80.952z M9.524,104.762H39.82l28.571-23.81h42.267L93.514,95.238h-3.038v9.524h109.524     h14.286v1.19c-4.672-0.709-9.419-1.19-14.286-1.19c-18.314,0-35.381,5.286-49.919,14.286H9.524V104.762z M197.925,114.395     l-10.557,10.553c-15.262,2.562-28.986,9.648-39.748,19.871v-12.51C161.61,121.461,179.001,114.852,197.925,114.395z      M108.391,128.572h28.829c-4.639,4.08-8.863,8.595-12.634,13.495L108.391,128.572z M110.657,142.857H68.391l-17.143-14.286     h42.267L110.657,142.857z M138.096,140.876v14.876c-8.61,12.01-13.805,26.59-14.19,42.371l-8.871-8.871     C117.381,170.6,125.725,153.824,138.096,140.876z M10.201,128.571h26.171l17.143,14.286H28.571     C19.725,142.857,12.329,136.762,10.201,128.571z M28.571,152.381h24.943l-17.143,14.286H10.201     C12.329,158.477,19.725,152.381,28.571,152.381z M28.571,214.286c-8.847,0-16.242-6.096-18.371-14.286h26.171l17.143,14.286     H28.571z M107.896,176.19c-1.971,7.624-3.133,15.576-3.133,23.81c0,4.867,0.481,9.614,1.19,14.286H68.391L51.248,200h29.705     v-9.524H9.524V176.19h71.429v-9.524H51.248l17.143-14.286h49.257c-2.633,4.538-4.881,9.314-6.748,14.286H90.477v9.524H107.896z      M132.31,252.381c-10.848-13.99-17.457-31.381-17.914-50.305l10.553,10.557c2.562,15.262,9.648,28.986,19.871,39.748H132.31z      M189.253,284.966c-18.652-2.348-35.429-10.69-48.376-23.062h14.876v0.001c12.01,8.61,26.59,13.805,42.371,14.19L189.253,284.966     z M133.334,200c0-36.762,29.905-66.667,66.667-66.667c36.762,0,66.667,29.905,66.667,66.667     c0,36.762-29.905,66.667-66.667,66.667C163.239,266.667,133.334,236.762,133.334,200z M252.381,267.691     c-13.99,10.848-31.381,17.457-50.305,17.914l10.557-10.553c15.262-2.562,28.986-9.648,39.748-19.871V267.691z M261.906,259.124     v-14.876c8.61-12.01,13.805-26.59,14.19-42.371l8.871,8.871C282.62,229.4,274.276,246.176,261.906,259.124z" fill="#AD0101"/>
			<path d="M247.62,200c0-26.257-21.362-47.619-47.619-47.619S152.381,173.743,152.381,200s21.362,47.619,47.619,47.619     S247.62,226.257,247.62,200z M161.906,200c0-21.005,17.09-38.095,38.095-38.095s38.095,17.09,38.095,38.095     s-17.09,38.095-38.095,38.095S161.906,221.005,161.906,200z" fill="#AD0101"/>
			<rect x="180.953" y="23.81" width="9.524" height="9.524" fill="#AD0101"/>
			<rect x="71.43" y="95.238" width="9.524" height="9.524" fill="#AD0101"/>
			<rect x="52.576" y="95.238" width="9.524" height="9.524" fill="#AD0101"/>
			<path d="M200.001,252.381v9.524c15.257,0,29.914-5.6,41.271-15.767l-6.352-7.095     C225.311,247.643,212.911,252.381,200.001,252.381z" fill="#AD0101"/>
			<rect x="90.477" y="190.476" width="9.524" height="9.524" fill="#AD0101"/>
			<path d="M104.472,250.095l-8.352,4.576c8.424,15.371,20.3,29.067,34.343,39.619l5.719-7.614     C123.214,276.929,112.248,264.281,104.472,250.095z" fill="#AD0101"/>
		</g>
	</g>
</g>
<g>
</g>
<g>
</g>
<g>
</g>
<g>
</g>
<g>
</g>
<g>
</g>
<g>
</g>
<g>
</g>
<g>
</g>
<g>
</g>
<g>
</g>
<g>
</g>
<g>
</g>
<g>
</g>
<g>
</g>
</svg>
