<?xml version="1.0" encoding="iso-8859-1"?>
<!-- Generator: Adobe Illustrator 19.0.0, SVG Export Plug-In . SVG Version: 6.00 Build 0)  -->
<svg xmlns="http://www.w3.org/2000/svg" xmlns:xlink="http://www.w3.org/1999/xlink" version="1.1" id="Layer_1" x="0px" y="0px" viewBox="0 0 512 512" style="enable-background:new 0 0 512 512;" xml:space="preserve" width="512px" height="512px">
<g>
	<g>
		<path d="M397.061,0h-52.245c-8.656,0-15.673,7.018-15.673,15.673v480.653c0,8.656,7.018,15.673,15.673,15.673h52.245    c8.656,0,15.673-7.018,15.673-15.673V15.673C412.735,7.018,405.717,0,397.061,0z" fill="#D80027"/>
	</g>
</g>
<g>
	<g>
		<path d="M316.452,83.802l-49.952-45.089c-5.965-5.385-15.038-5.384-21.006,0l-49.948,45.089c-6.424,5.8-6.932,15.711-1.131,22.137    c5.8,6.427,15.711,6.931,22.137,1.132l39.445-35.609l39.45,35.61c6.425,5.8,16.337,5.292,22.137-1.133    C323.384,99.514,322.878,89.602,316.452,83.802z" fill="#D80027"/>
	</g>
</g>
<g>
	<g>
		<path d="M316.452,157.045l-49.952-45.089c-5.965-5.384-15.038-5.384-21.006,0l-49.948,45.089    c-6.424,5.8-6.932,15.711-1.131,22.137c5.8,6.427,15.711,6.931,22.137,1.132l39.445-35.609l39.45,35.61    c6.425,5.8,16.337,5.292,22.137-1.133C323.384,172.757,322.878,162.846,316.452,157.045z" fill="#D80027"/>
	</g>
</g>
<g>
	<g>
		<path d="M316.452,230.289L266.499,185.2c-5.965-5.385-15.038-5.384-21.006,0l-49.948,45.089c-6.424,5.8-6.932,15.711-1.131,22.137    c5.8,6.427,15.711,6.931,22.137,1.132l39.445-35.609l39.45,35.61c6.425,5.8,16.337,5.292,22.137-1.133    C323.384,246,322.878,236.089,316.452,230.289z" fill="#D80027"/>
	</g>
</g>
<g>
	<g>
		<path d="M316.452,303.531l-49.952-45.089c-5.965-5.384-15.038-5.384-21.006,0l-49.948,45.089    c-6.424,5.8-6.932,15.711-1.131,22.137c5.8,6.427,15.711,6.931,22.137,1.132l39.445-35.609l39.45,35.61    c6.425,5.8,16.337,5.292,22.137-1.133C323.384,319.242,322.878,309.333,316.452,303.531z" fill="#D80027"/>
	</g>
</g>
<g>
	<g>
		<path d="M316.452,376.775l-49.952-45.089c-5.965-5.385-15.038-5.384-21.006,0l-49.948,45.089    c-6.424,5.8-6.932,15.711-1.131,22.137c5.8,6.427,15.711,6.931,22.137,1.132l39.445-35.609l39.45,35.61    c6.425,5.8,16.337,5.292,22.137-1.133C323.384,392.487,322.878,382.576,316.452,376.775z" fill="#D80027"/>
	</g>
</g>
<g>
	<g>
		<path d="M316.452,450.019l-49.952-45.089c-5.965-5.385-15.038-5.384-21.006,0l-49.948,45.089    c-6.424,5.8-6.932,15.711-1.131,22.137c5.8,6.427,15.711,6.931,22.137,1.132l39.445-35.609l39.45,35.61    c6.425,5.8,16.337,5.292,22.137-1.133C323.384,465.73,322.878,455.819,316.452,450.019z" fill="#D80027"/>
	</g>
</g>
<g>
	<g>
		<path d="M167.184,0h-52.245c-8.656,0-15.673,7.018-15.673,15.673v480.653c0,8.656,7.018,15.673,15.673,15.673h52.245    c8.656,0,15.674-7.018,15.674-15.673V15.673C182.857,7.018,175.84,0,167.184,0z" fill="#D80027"/>
	</g>
</g>
<g>
</g>
<g>
</g>
<g>
</g>
<g>
</g>
<g>
</g>
<g>
</g>
<g>
</g>
<g>
</g>
<g>
</g>
<g>
</g>
<g>
</g>
<g>
</g>
<g>
</g>
<g>
</g>
<g>
</g>
</svg>
